<?xml version="1.0" encoding="utf-8"?>
<?xml-stylesheet type="text/xsl" href="rss1.xsl"?>
<rss version="2.0" xmlns:atom="http://www.w3.org/2005/Atom" xmlns:content="http://purl.org/rss/1.0/modules/content/" xmlns:dc="http://purl.org/dc/elements/1.1/" xmlns:media="http://search.yahoo.com/mrss/">
<channel>
 <title>Getty</title>
 <link>http://www.gettyimg.com/</link>
 <atom:link href="http://www.gettyimg.com/" rel="self" type="application/rss+xml" />

 
                <item>
                <title><![CDATA[【Cinema Center】SERIES - Ollie's Pack - Season 1 - 1080p Amazon WEB-DL DDP5.1 H.264-LAZY]]></title>
                <link><![CDATA[https://sharemania.us/threads/ollies-pack-season-1-1080p-amazon-web-dl-ddp5-1-h-264-lazy.234217/]]></link>
                <description><![CDATA[<article>
<blockquote class="messageText SelectQuoteContainer ugc baseHtml">
Ollie's Pack:<img src="https://cdn2.broadcasthe.net/tvdb/banners/series/378757/banners/5ebd0bae5a445.jpg" class="bbCodeImage LbImage" alt="[​IMG]" data-url="https://cdn2.broadcasthe.net/tvdb/banners/series/378757/banners/5ebd0bae5a445.jpg" style=""><br>
<br>
<div class="bbCodeBlock bbCodeQuote">
<aside>
<blockquote class="quoteContainer"><div class="quote"><i><b>Synopsis:</b></i><br>
Ollie’s Pack is an animated comedy about Ollie, a 13-year old boy who, with the help of his best buddies Cleo and Bernie and monster trainer Captain Wowski, protects and controls a backpack portal to the world of monsters.</div><div class="quoteExpand">Click to expand...</div></blockquote>
</aside>
</div>
<div class="ToggleTriggerAnchor bbCodeSpoilerContainer">
<button type="button" class="button bbCodeSpoilerButton ToggleTrigger Tooltip JsOnly" data-target="> .SpoilerTarget"><span>Spoiler: <span class="SpoilerTitle">MediaInfo</span></span></button>
<div class="SpoilerTarget bbCodeSpoilerText">General<br>
Unique ID : 73428857823501961076468459689031162157 (0x373DE234082987D92394350B819AD92D)<br>
Complete name : Ollies.Pack.S01E01E02.The.Chosen.One.Stinks.-.Not.Another.Superhero.Movie.1080p.AMZN.WEB-DL.DDP5.1.H.264-LAZY.mkv<br>
Format : Matroska<br>
Format version : Version 4<br>
File size : 883 MiB<br>
Duration : 22 min 40 s<br>
Overall bit rate : 5 444 kb/s<br>
Encoded date : UTC 2023-12-18 17:26:03<br>
Writing application : mkvmerge v81.0 ('Milliontown') 64-bit<br>
Writing library : libebml v1.4.4 + libmatroska v1.7.1<br>
<br>
Video<br>
ID : 1<br>
Format : AVC<br>
Format/Info : Advanced Video Codec<br>
Format profile : High@L4<br>
Format settings : CABAC / 4 Ref Frames<br>
Format settings, CABAC : Yes<br>
Format settings, Reference frames : 4 frames<br>
Codec ID : V_MPEG4/ISO/AVC<br>
Duration : 22 min 40 s<br>
Bit rate mode : Constant<br>
Bit rate : 4 802 kb/s<br>
Nominal bit rate : 10 000 kb/s<br>
Width : 1 920 pixels<br>
Height : 1 080 pixels<br>
Display aspect ratio : 16:9<br>
Frame rate mode : Constant<br>
Frame rate : 24.000 FPS<br>
Color space : YUV<br>
Chroma subsampling : 4:2:0<br>
Bit depth : 8 bits<br>
Scan type : Progressive<br>
Bits/(Pixel*Frame) : 0.096<br>
Stream size : 778 MiB (88%)<br>
Default : Yes<br>
Forced : No<br>
Color range : Limited<br>
Color primaries : BT.709<br>
Transfer characteristics : BT.709<br>
Matrix coefficients : BT.709<br>
<br>
Audio<br>
ID : 2<br>
Format : E-AC-3<br>
Format/Info : Enhanced AC-3<br>
Commercial name : Dolby Digital Plus<br>
Codec ID : A_EAC3<br>
Duration : 22 min 40 s<br>
Bit rate mode : Constant<br>
Bit rate : 640 kb/s<br>
Channel(s) : 6 channels<br>
Channel layout : L R C LFE Ls Rs<br>
Sampling rate : 48.0 kHz<br>
Frame rate : 31.250 FPS (1536 SPF)<br>
Compression mode : Lossy<br>
Stream size : 104 MiB (12%)<br>
Language : English<br>
Service kind : Complete Main<br>
Default : Yes<br>
Forced : No<br>
<br>
Text<br>
ID : 3<br>
Format : UTF-8<br>
Codec ID : S_TEXT/UTF8<br>
Codec ID/Info : UTF-8 Plain Text<br>
Duration : 22 min 16 s<br>
Bit rate : 96 b/s<br>
Count of elements : 603<br>
Stream size : 15.8 KiB (0%)<br>
Title : SDH<br>
Language : English<br>
Default : No<br>
Forced : No</div>
</div><br>
Screenshots:<br>
<img src="https://i.imgur.com/smHghLP.jpg" class="bbCodeImage LbImage" alt="[​IMG]" data-url="https://i.imgur.com/smHghLP.jpg" style=""> <br>
<br>
<div class="bbCodeBlock bbCodeVfcHH HiddenContent">
<div class="attribution type">Hidden Content:</div>
<blockquote>You must either reply or click 'Like' to see the hidden information contained here.</blockquote>
</div>
<div class="messageTextEndMarker">&nbsp;</div>
</blockquote>
</article>]]></description>
                <author><![CDATA[LazyRips]]></author>
                </item>

                
                <item>
                <title><![CDATA[【Requests】[REQ AUD] - Artist Request]]></title>
                <link><![CDATA[https://sharemania.us/threads/artist-request.234218/]]></link>
                <description><![CDATA[<article>
<blockquote class="messageText SelectQuoteContainer ugc baseHtml">
If anyone happens to have anything in FLAC (no vinyl rips and preferably 24/96) by Tori Amos, PJ Harvey or Kate Bush, would you mind sending it my way?<br>
<br>
Any music/reccomendations by similar artists would also be greatly appreciated.<br>
<br>
Thanks,<br>
J. Schartzenmeister
<div class="messageTextEndMarker">&nbsp;</div>
</blockquote>
</article>]]></description>
                <author><![CDATA[jschartz]]></author>
                </item>

                
                <item>
                <title><![CDATA[【Albums (lossless)】WAV - Roupa Nova - The Best En Espanol 1992]]></title>
                <link><![CDATA[https://sharemania.us/threads/roupa-nova-the-best-en-espanol-1992.234216/]]></link>
                <description><![CDATA[<article>
<blockquote class="messageText SelectQuoteContainer ugc baseHtml">
Roupa Nova - The Best En Espanol 1992 - WAV<br>
<a href="https://www.discogs.com/release/13531533-Roupa-Nova-The-Best-En-Espa%C3%B1ol" target="_blank" class="externalLink" rel="nofollow">https://www.discogs.com/release/13531533-Roupa-Nova-The-Best-En-Español</a><br>
<a href="https://www.mediafire.com/file/5a4ag1cxe93x9hv/Roupa+Nova+-+The+Best+En+Espanol+1992+-+WAV.7z/file" target="_blank" class="externalLink" rel="nofollow">https://www.mediafire.com/file/5a4ag1cxe93x9hv/Roupa+Nova+-+The+Best+En+Espanol+1992+-+WAV.7z/file</a><br>
<img src="https://i.discogs.com/UwXDRc4Vi7SYegB2aLtRpqGFLvlpCsKyvSwOfA7VOtk/rs:fit/g:sm/q:90/h:600/w:600/czM6Ly9kaXNjb2dz/LWRhdGFiYXNlLWlt/YWdlcy9SLTEzNTMx/NTMzLTE1NTU5Nzcz/MTEtNzY3Ny5qcGVn.jpeg" class="bbCodeImage LbImage" alt="[​IMG]" data-url="https://i.discogs.com/UwXDRc4Vi7SYegB2aLtRpqGFLvlpCsKyvSwOfA7VOtk/rs:fit/g:sm/q:90/h:600/w:600/czM6Ly9kaXNjb2dz/LWRhdGFiYXNlLWlt/YWdlcy9SLTEzNTMx/NTMzLTE1NTU5Nzcz/MTEtNzY3Ny5qcGVn.jpeg" style=""> <img src="https://i.discogs.com/q2HxvmIWddxQEXym5gcaP85ZqbB8WWklx7DAtO6C7Fg/rs:fit/g:sm/q:90/h:466/w:600/czM6Ly9kaXNjb2dz/LWRhdGFiYXNlLWlt/YWdlcy9SLTEzNTMx/NTMzLTE1NTU5Nzcz/NDUtNzIwOS5qcGVn.jpeg" class="bbCodeImage LbImage" alt="[​IMG]" data-url="https://i.discogs.com/q2HxvmIWddxQEXym5gcaP85ZqbB8WWklx7DAtO6C7Fg/rs:fit/g:sm/q:90/h:466/w:600/czM6Ly9kaXNjb2dz/LWRhdGFiYXNlLWlt/YWdlcy9SLTEzNTMx/NTMzLTE1NTU5Nzcz/NDUtNzIwOS5qcGVn.jpeg" style="">
<div class="messageTextEndMarker">&nbsp;</div>
</blockquote>
</article>]]></description>
                <author><![CDATA[Francineudo]]></author>
                </item>

                </channel></rss>